<svg width="47" height="66" viewBox="0 0 47 66" fill="none" xmlns="http://www.w3.org/2000/svg">
<path d="M11.5716 6.73257L0 13.4651V26.5796V39.7117L11.3963 46.3215C17.673 49.9683 22.9328 52.9839 23.0906 53.0365C23.2835 53.1067 27.4913 50.7573 34.9603 46.4267L46.5494 39.7117L46.4968 26.5621L46.4618 13.4301L34.9778 6.71504C28.666 3.03317 23.4062 0.0175362 23.3185 3.8147e-06C23.2133 3.8147e-06 17.9185 3.03317 11.5716 6.73257ZM34.2765 8.34559L44.8838 14.5171V26.5621V38.6246L34.0836 44.9189L23.2659 51.2131L12.4658 44.9364L1.68314 38.6597V26.5621V14.4645L12.4833 8.20533C18.4269 4.76891 23.3711 1.99874 23.4763 2.06887C23.5815 2.12146 28.4381 4.96177 34.2765 8.34559Z" fill="white"/>
<path d="M20.3378 9.74821C19.7593 9.88847 18.532 10.3619 17.6203 10.8002C16.2352 11.484 15.7267 11.8697 14.4644 13.132C11.7994 15.797 10.6598 18.7425 10.8176 22.512C10.9754 25.6329 11.1156 25.966 17.4975 37.0116C20.6008 42.3942 23.1781 46.8124 23.2307 46.8124C23.371 46.8124 34.0309 28.2453 34.627 26.9654C36.0998 23.8095 35.977 19.5139 34.3114 16.2178C32.751 13.132 29.5951 10.6424 26.1938 9.81834C24.4405 9.39756 21.9158 9.38002 20.3378 9.74821ZM23.7217 12.0275C23.7918 12.5009 23.2658 12.7288 22.9152 12.3781C22.547 12.0275 22.7749 11.5366 23.2658 11.6067C23.5113 11.6417 23.6866 11.7995 23.7217 12.0275ZM22.6171 13.0619C22.6171 13.4476 22.0736 13.6405 21.7931 13.36C21.495 13.0619 21.7755 12.5885 22.2138 12.6586C22.4768 12.6937 22.6171 12.834 22.6171 13.0619ZM24.721 13.0619C24.721 13.4652 24.1249 13.6405 23.9321 13.3074C23.7041 12.9567 23.9496 12.606 24.3528 12.6586C24.5808 12.6937 24.721 12.834 24.721 13.0619ZM21.5476 13.9561C21.6879 14.3243 21.5301 14.5522 21.1093 14.5522C20.8638 14.5522 20.7762 14.4295 20.7762 14.1139C20.7762 13.6054 21.3723 13.4827 21.5476 13.9561ZM23.7217 14.1314C23.7918 14.6048 23.2658 14.8327 22.9152 14.4821C22.547 14.1314 22.7749 13.6405 23.2658 13.7106C23.5113 13.7457 23.6866 13.9035 23.7217 14.1314ZM25.773 14.1139C25.773 14.3418 25.6327 14.4821 25.3873 14.5171C25.0892 14.5697 24.984 14.4821 24.984 14.2366C24.984 14.0613 25.0366 13.8509 25.1067 13.7807C25.3347 13.5528 25.773 13.7632 25.773 14.1139ZM20.3904 15.2184C20.4255 15.4639 20.3554 15.6041 20.18 15.6041C19.8469 15.6041 19.6716 15.3061 19.7943 14.973C19.9346 14.5872 20.3203 14.7626 20.3904 15.2184ZM22.6171 15.1658C22.6171 15.5691 22.021 15.7444 21.8281 15.4113C21.6002 15.0606 21.8457 14.71 22.2489 14.7626C22.4768 14.7976 22.6171 14.9379 22.6171 15.1658ZM24.721 15.1658C24.721 15.3938 24.5808 15.534 24.3353 15.5691C24.0022 15.6217 23.9321 15.5515 23.9321 15.1658C23.9321 14.7801 24.0022 14.71 24.3353 14.7626C24.5808 14.7976 24.721 14.9379 24.721 15.1658ZM26.6847 14.9204C26.9302 15.1658 26.7899 15.6041 26.4743 15.6041C26.1587 15.6041 25.9834 15.3061 26.1061 14.9905C26.2113 14.6749 26.4217 14.6574 26.6847 14.9204ZM21.4249 15.9723C21.7054 16.2529 21.5125 16.6561 21.1093 16.6561C20.8989 16.6561 20.7762 16.5334 20.7762 16.3405C20.7762 15.797 21.0742 15.6217 21.4249 15.9723ZM23.7217 16.2353C23.7918 16.7087 23.2658 16.9366 22.9152 16.586C22.547 16.2353 22.7749 15.7444 23.2658 15.8145C23.5113 15.8496 23.6866 16.0074 23.7217 16.2353ZM25.773 16.2178C25.773 16.4457 25.6327 16.586 25.3873 16.621C25.0892 16.6736 24.984 16.586 24.984 16.3405C24.984 16.1652 25.0366 15.9548 25.1067 15.8847C25.3347 15.6567 25.773 15.8671 25.773 16.2178ZM19.3385 16.2529C19.3034 16.4282 19.1631 16.5684 19.0229 16.5684C18.8826 16.5684 18.7424 16.4282 18.7073 16.2529C18.6722 16.0425 18.7599 15.9548 19.0229 15.9548C19.2859 15.9548 19.3735 16.0425 19.3385 16.2529ZM27.7893 16.1827C27.7893 16.323 27.7367 16.4808 27.6665 16.5334C27.5087 16.6912 27.0704 16.3055 27.1931 16.1126C27.3334 15.8671 27.7893 15.9197 27.7893 16.1827ZM22.6171 17.2698C22.6171 17.673 22.021 17.8483 21.8106 17.5152C21.6353 17.2172 21.9684 16.7964 22.3366 16.8665C22.4944 16.9016 22.6171 17.0769 22.6171 17.2698ZM24.721 17.2698C24.721 17.4977 24.5808 17.6379 24.3353 17.673C24.0373 17.7256 23.9321 17.6379 23.9321 17.3925C23.9321 17.2172 23.9847 17.0068 24.0548 16.9366C24.2827 16.7087 24.721 16.9191 24.721 17.2698ZM18.1988 17.2698C18.2164 17.3574 18.0937 17.4626 17.9359 17.4977C17.743 17.5327 17.6203 17.4451 17.6203 17.2698C17.6203 16.9717 18.1463 16.9542 18.1988 17.2698ZM20.4255 17.375C20.4255 17.8133 19.8469 17.7607 19.7593 17.3048C19.7242 17.0944 19.8119 17.0068 20.0573 17.0068C20.3203 17.0068 20.4255 17.112 20.4255 17.375ZM26.7899 17.112C26.9477 17.2873 26.7198 17.7081 26.4743 17.7081C26.1762 17.7081 25.9834 17.41 26.1236 17.1821C26.2464 16.9892 26.6146 16.9542 26.7899 17.112ZM28.8062 17.3048C28.736 17.6905 28.4204 17.6555 28.3503 17.2873C28.3152 17.112 28.4029 17.0068 28.5782 17.0068C28.7536 17.0068 28.8412 17.1295 28.8062 17.3048ZM21.4775 18.4269C21.4775 18.6373 21.3547 18.76 21.1268 18.76C20.7411 18.76 20.6184 18.1464 21.0041 18.0061C21.3197 17.9009 21.4775 18.0412 21.4775 18.4269ZM23.7217 18.3393C23.7918 18.8477 23.2307 19.0581 22.9327 18.6548C22.7574 18.4269 22.7574 18.2867 22.9152 18.1113C23.1957 17.7782 23.6515 17.9009 23.7217 18.3393ZM25.7905 18.5672C25.7204 18.6724 25.51 18.76 25.3171 18.76C24.949 18.76 24.8438 18.1464 25.2119 18.0061C25.4925 17.9009 25.9308 18.3217 25.7905 18.5672ZM17.0943 18.3217C17.0943 18.462 16.9716 18.5847 16.8313 18.5847C16.5508 18.5847 16.4806 18.3743 16.691 18.1815C16.8839 17.9711 17.0943 18.0412 17.0943 18.3217ZM19.3385 18.3568C19.3034 18.5321 19.1631 18.6724 19.0229 18.6724C18.8826 18.6724 18.7424 18.5321 18.7073 18.3568C18.6722 18.1464 18.7599 18.0587 19.0229 18.0587C19.2859 18.0587 19.3735 18.1464 19.3385 18.3568ZM27.7542 18.3568C27.6665 18.7951 27.2633 18.8477 27.2633 18.4269C27.2633 18.2165 27.3685 18.0587 27.5438 18.0587C27.7016 18.0587 27.7893 18.1815 27.7542 18.3568ZM29.8932 18.3217C29.8932 18.462 29.7705 18.5847 29.6302 18.5847C29.4899 18.5847 29.3672 18.462 29.3672 18.3217C29.3672 18.1815 29.4899 18.0587 29.6302 18.0587C29.7705 18.0587 29.8932 18.1815 29.8932 18.3217ZM18.2339 19.286C18.2865 19.3912 18.2164 19.5139 18.0586 19.5665C17.7255 19.7068 17.5326 19.5665 17.7079 19.3036C17.8482 19.0581 18.0937 19.0581 18.2339 19.286ZM20.4255 19.4789C20.4255 19.7243 20.3378 19.812 20.1274 19.7769C19.6716 19.6893 19.619 19.1107 20.0573 19.1107C20.3203 19.1107 20.4255 19.2159 20.4255 19.4789ZM22.6171 19.4613C22.6171 19.6016 22.4418 19.7419 22.2314 19.7769C21.9158 19.8295 21.8281 19.7419 21.8281 19.4613C21.8281 19.1808 21.9158 19.0932 22.2314 19.1458C22.4418 19.1808 22.6171 19.3211 22.6171 19.4613ZM24.721 19.4613C24.721 19.6016 24.5457 19.7419 24.3353 19.7769C24.0197 19.8295 23.9321 19.7419 23.9321 19.4613C23.9321 19.1808 24.0197 19.0932 24.3353 19.1458C24.5457 19.1808 24.721 19.3211 24.721 19.4613ZM26.7373 19.4613C26.7373 19.6542 26.6321 19.812 26.4918 19.812C26.1762 19.812 25.9834 19.5315 26.1236 19.286C26.3165 18.9704 26.7373 19.0932 26.7373 19.4613ZM28.8412 19.3737C28.8412 19.5139 28.7185 19.6367 28.5782 19.6367C28.438 19.6367 28.3152 19.5139 28.3152 19.3737C28.3152 19.2334 28.438 19.1107 28.5782 19.1107C28.7185 19.1107 28.8412 19.2334 28.8412 19.3737ZM16.0423 19.4613C16.0423 19.549 15.9722 19.6367 15.867 19.6367C15.7793 19.6367 15.6917 19.549 15.6917 19.4613C15.6917 19.3562 15.7793 19.286 15.867 19.286C15.9722 19.286 16.0423 19.3562 16.0423 19.4613ZM30.9452 19.4613C30.9452 19.549 30.8224 19.6367 30.6822 19.6367C30.5419 19.6367 30.4192 19.549 30.4192 19.4613C30.4192 19.3562 30.5419 19.286 30.6822 19.286C30.8224 19.286 30.9452 19.3562 30.9452 19.4613ZM19.3034 20.3555C19.4787 20.6536 19.0755 20.9867 18.83 20.7412C18.6196 20.5308 18.7599 20.1627 19.0229 20.1627C19.1106 20.1627 19.2333 20.2503 19.3034 20.3555ZM21.4775 20.5133C21.4775 20.7412 21.3547 20.864 21.1268 20.864C20.8989 20.864 20.7762 20.7412 20.7762 20.5133C20.7762 20.2854 20.8989 20.1627 21.1268 20.1627C21.3547 20.1627 21.4775 20.2854 21.4775 20.5133ZM25.6853 20.5308C25.6853 20.9692 25.1067 20.9166 25.0191 20.4607C24.984 20.2503 25.0717 20.1627 25.3171 20.1627C25.5801 20.1627 25.6853 20.2679 25.6853 20.5308ZM27.7542 20.4607C27.6841 20.8464 27.3685 20.8114 27.2983 20.4432C27.2633 20.2679 27.3509 20.1627 27.5263 20.1627C27.7016 20.1627 27.7893 20.2854 27.7542 20.4607ZM29.8932 20.5308C29.8932 20.6185 29.7705 20.6886 29.6302 20.6886C29.3672 20.6886 29.2795 20.4782 29.4724 20.2854C29.6127 20.1451 29.8932 20.3029 29.8932 20.5308ZM14.9904 20.5133C14.9904 20.601 14.9202 20.6886 14.815 20.6886C14.7274 20.6886 14.6397 20.601 14.6397 20.5133C14.6397 20.4081 14.7274 20.338 14.815 20.338C14.9202 20.338 14.9904 20.4081 14.9904 20.5133ZM17.0943 20.5133C17.0943 20.601 17.0242 20.6886 16.919 20.6886C16.8313 20.6886 16.7436 20.601 16.7436 20.5133C16.7436 20.4081 16.8313 20.338 16.919 20.338C17.0242 20.338 17.0943 20.4081 17.0943 20.5133ZM31.9971 20.4081C31.9971 20.4607 31.927 20.5484 31.8218 20.601C31.7341 20.6536 31.6465 20.6185 31.6465 20.5308C31.6465 20.4256 31.7341 20.338 31.8218 20.338C31.927 20.338 31.9971 20.3731 31.9971 20.4081Z" fill="white"/>
<path d="M9.02921 55.3859V56.5957L8.4331 56.4204C7.64412 56.1749 6.92528 56.5256 6.5045 57.3847C6.22397 57.9808 6.20644 58.121 6.43437 58.6996C6.59216 59.1555 6.87268 59.436 7.32854 59.6639C7.90712 59.962 8.02984 59.962 8.50323 59.7341C8.78375 59.5763 9.02921 59.5412 9.02921 59.6289C9.02921 59.7165 9.30973 59.7867 9.64286 59.7867H10.2565V56.9814V54.1762H9.64286H9.02921V55.3859ZM8.81882 57.5425C9.2922 58.0158 8.94155 58.91 8.31037 58.91C7.94218 58.91 7.45126 58.4542 7.45126 58.121C7.45126 57.5074 8.3805 57.1041 8.81882 57.5425Z" fill="white"/>
<path d="M2.9279 54.6496C2.82271 54.8249 2.31426 56.0522 1.78828 57.3671L0.823975 59.7867H1.49022C2.0688 59.7867 2.174 59.7165 2.34932 59.2607C2.52465 58.7522 2.55972 58.7347 3.57661 58.7347C4.57598 58.7347 4.61105 58.7522 4.80391 59.2607C4.94417 59.7165 5.0669 59.7867 5.59288 59.7867C5.94353 59.7867 6.22406 59.7165 6.22406 59.6464C6.22406 59.5587 5.75067 58.349 5.18963 56.9639C4.19026 54.5619 4.12013 54.4392 3.61168 54.3866C3.24349 54.3515 3.0331 54.4216 2.9279 54.6496ZM3.90974 56.8587C4.19026 57.6652 4.19026 57.6827 3.59415 57.6827C3.01557 57.6827 2.9805 57.6301 3.26103 56.8236C3.50648 56.1223 3.64675 56.1398 3.90974 56.8587Z" fill="white"/>
<path d="M40.8865 54.4742C40.5884 54.7723 40.869 56.6308 41.2021 56.6308C41.4651 56.6308 41.9034 55.0002 41.7456 54.6145C41.6579 54.3515 41.0969 54.2638 40.8865 54.4742Z" fill="white"/>
<path d="M23.5814 55.8418C23.5814 56.2626 23.4937 56.4554 23.3184 56.4554C23.1606 56.4554 23.0554 56.6132 23.0554 56.8937C23.0554 57.1743 23.1606 57.3321 23.3184 57.3321C23.5113 57.3321 23.5814 57.5425 23.5814 58.1912C23.5814 59.2782 24.0022 59.8392 24.7736 59.8392C25.0892 59.8392 25.3873 59.8042 25.4399 59.7341C25.6327 59.5587 25.3347 58.7347 25.1068 58.7873C24.9665 58.8048 24.8788 58.5594 24.8438 58.0684C24.7912 57.4197 24.8262 57.3321 25.1418 57.3321C25.4223 57.3321 25.51 57.2269 25.51 56.8937C25.51 56.5782 25.4223 56.4554 25.1593 56.4554C24.8788 56.4554 24.8087 56.3327 24.8087 55.8418C24.8087 55.2632 24.7736 55.2281 24.195 55.2281C23.6165 55.2281 23.5814 55.2632 23.5814 55.8418Z" fill="white"/>
<path d="M15.9022 56.5431C15.2359 56.8412 14.745 57.7879 14.9203 58.4717C15.0606 59.0503 15.7619 59.7341 16.323 59.8393C16.9191 59.9444 17.8658 59.6815 18.1639 59.3308C18.3568 59.0853 18.3392 59.0152 18.0938 58.8224C17.8483 58.647 17.6554 58.647 17.2522 58.7873C16.884 58.9275 16.6561 58.9451 16.4281 58.8048C15.8846 58.4542 16.1126 58.2964 17.3223 58.2438C18.3743 58.1912 18.497 58.1561 18.497 57.8405C18.497 57.2619 18.1464 56.7886 17.5327 56.5256C16.7963 56.2275 16.6385 56.2275 15.9022 56.5431ZM17.2697 57.4197C17.2697 57.5951 17.0944 57.6827 16.7437 57.6827C16.3931 57.6827 16.2178 57.5951 16.2178 57.4197C16.2178 57.2444 16.3931 57.1567 16.7437 57.1567C17.0944 57.1567 17.2697 57.2444 17.2697 57.4197Z" fill="white"/>
<path d="M20.8113 56.4379C20.671 56.5256 20.2152 56.5431 19.7944 56.4905L19.0229 56.4028V58.1035V59.7867H19.6366H20.2502V58.647C20.2502 57.7529 20.3204 57.4899 20.5658 57.3496C21.197 57.0165 21.4775 57.4197 21.4775 58.647V59.7867H22.0912H22.7048V58.5418C22.7048 57.0866 22.547 56.736 21.8107 56.473C21.1444 56.245 21.1093 56.245 20.8113 56.4379Z" fill="white"/>
<path d="M31.8569 56.5606C31.6465 56.7009 31.4712 56.736 31.4712 56.6483C31.4712 56.5431 31.1907 56.4554 30.8575 56.4554H30.2439V58.121V59.7867H30.8575H31.4712V58.647C31.4712 57.5951 31.5063 57.5074 31.892 57.4022C32.1374 57.3496 32.418 57.3496 32.5056 57.4197C32.6108 57.4723 32.7861 57.3145 32.9089 57.0691C33.0842 56.6834 33.0667 56.5782 32.8563 56.4379C32.5056 56.2275 32.3128 56.245 31.8569 56.5606Z" fill="white"/>
<path d="M34.3116 56.5431C33.6453 56.8412 33.1544 57.7879 33.3298 58.4717C33.47 59.0503 34.1713 59.7341 34.7324 59.8393C35.3285 59.9444 36.2753 59.6815 36.5733 59.3308C36.7662 59.0853 36.7486 59.0152 36.5032 58.8224C36.2577 58.647 36.0649 58.647 35.6616 58.7873C35.2934 58.9275 35.0655 58.9451 34.8376 58.8048C34.2941 58.4542 34.522 58.2964 35.7317 58.2438C36.7837 58.1912 36.9064 58.1561 36.9064 57.8405C36.9064 57.2619 36.5558 56.7886 35.9421 56.5256C35.2058 56.2275 35.048 56.2275 34.3116 56.5431ZM35.6791 57.4197C35.6791 57.5951 35.5038 57.6827 35.1532 57.6827C34.8025 57.6827 34.6272 57.5951 34.6272 57.4197C34.6272 57.2444 34.8025 57.1567 35.1532 57.1567C35.5038 57.1567 35.6791 57.2444 35.6791 57.4197Z" fill="white"/>
<path d="M39.0454 56.5606C38.835 56.7009 38.6597 56.736 38.6597 56.6483C38.6597 56.5431 38.3791 56.4554 38.046 56.4554H37.4324V58.121V59.7867H38.046H38.6597V58.7522C38.6597 57.6301 38.9227 57.2269 39.5363 57.3847C39.7993 57.4548 39.9571 57.3496 40.1499 56.9814C40.3954 56.5256 40.3779 56.4905 40.0097 56.3853C39.4837 56.245 39.4837 56.245 39.0454 56.5606Z" fill="white"/>
<path d="M43.3412 56.473C42.482 56.8061 42.4996 57.8756 43.3762 58.3139C44.2879 58.7698 44.2178 59.2957 43.3061 58.875C42.9204 58.6996 42.8152 58.7172 42.6749 58.9276C42.3944 59.3659 42.4996 59.5938 43.0957 59.7516C45.0243 60.2951 46.2165 58.5243 44.4457 57.7529C43.5866 57.3671 43.534 57.0691 44.3581 57.2094C44.849 57.297 44.9717 57.2444 45.0594 56.9639C45.1295 56.771 45.147 56.5782 45.112 56.5431C44.9366 56.3678 43.7619 56.3152 43.3412 56.473Z" fill="white"/>
<path d="M10.6074 56.5606C10.6074 56.6308 10.9756 57.3847 11.449 58.2438C12.5536 60.3302 12.7639 60.3127 13.9737 58.0685L14.8503 56.4554H14.149C13.4828 56.4554 13.4477 56.4905 13.062 57.3496L12.6763 58.2438L12.273 57.3496C11.8873 56.5256 11.7996 56.4554 11.2211 56.4554C10.8879 56.4554 10.6074 56.508 10.6074 56.5606Z" fill="white"/>
<path d="M25.8608 57.5425C25.8608 58.1561 25.966 58.8399 26.0888 59.0853C26.3868 59.6814 27.4213 60.0146 28.333 59.8042C29.3323 59.5763 29.5252 59.2256 29.5427 57.7178V56.4554H29.0167C28.5258 56.4554 28.4908 56.4905 28.4732 57.1918C28.4382 58.3665 28.2628 58.8223 27.807 58.8749C27.2459 58.9626 27.0881 58.6645 27.0881 57.4548V56.4554H26.4745H25.8608V57.5425Z" fill="white"/>
<path d="M34.4519 63.1179V65.9231H35.0656H35.6792V63.1179V60.3126H35.0656H34.4519V63.1179Z" fill="white"/>
<path d="M11.9574 60.6107C11.8873 60.6633 11.8347 61.6101 11.8347 62.6971C11.8347 64.538 11.8171 64.6783 11.484 64.7835C11.2736 64.8536 11.0106 64.801 10.8704 64.6958C10.66 64.5205 10.5723 64.5731 10.397 64.9413C10.2217 65.327 10.2392 65.4497 10.4671 65.6952C10.9054 66.1335 12.1152 66.0634 12.6237 65.5725C13.0444 65.1692 13.062 65.0815 13.062 62.8198V60.488H12.5711C12.2905 60.488 12.01 60.5406 11.9574 60.6107Z" fill="white"/>
<path d="M14.6398 62.7321C13.8859 63.1003 13.5178 63.8192 13.658 64.5906C13.7983 65.3095 14.2541 65.7302 15.0782 65.9231C17.4626 66.4666 18.6724 63.5912 16.4633 62.662C15.6918 62.3464 15.3762 62.3464 14.6398 62.7321ZM16.1827 63.6789C16.4808 63.977 16.4457 64.6081 16.1301 64.8711C15.7795 65.1692 15.0431 64.9588 14.9028 64.5205C14.6574 63.749 15.6217 63.1179 16.1827 63.6789Z" fill="white"/>
<path d="M24.0724 62.6971C23.7919 62.8374 23.5815 62.8724 23.5815 62.7672C23.5815 62.6796 23.3536 62.5919 23.0555 62.5919H22.5295V64.2575V65.9231H23.0555C23.5815 65.9231 23.5815 65.9056 23.5815 64.9939C23.5815 63.8543 23.8796 63.3809 24.5107 63.5036C24.8614 63.5737 25.0017 63.5036 25.1595 63.153C25.3172 62.8023 25.2997 62.6796 25.1244 62.5744C24.8088 62.364 24.6159 62.3815 24.0724 62.6971Z" fill="white"/>
<path d="M27.4739 62.5744C27.3336 62.662 26.8778 62.6796 26.457 62.627L25.6855 62.5393V64.24V65.9231H26.2992H26.9128V64.7835C26.9128 63.8893 26.983 63.6263 27.2284 63.4861C27.8596 63.153 28.1401 63.5562 28.1401 64.7835V65.9231H28.7538H29.3674V64.6783C29.3674 63.2231 29.2096 62.8724 28.4733 62.6094C27.807 62.3815 27.7719 62.3815 27.4739 62.5744Z" fill="white"/>
<path d="M30.735 62.6796C30.472 62.8374 30.1739 63.1003 30.0687 63.2932C29.8408 63.7315 29.8408 64.801 30.0862 65.2569C30.3492 65.7303 31.3486 66.1335 31.8571 65.9582C32.085 65.8705 32.5934 65.8355 33.0142 65.888L33.7506 65.9582V64.275V62.5744L33.0142 62.6094C32.5934 62.6094 32.0324 62.5744 31.7343 62.5218C31.4012 62.4516 31.033 62.5218 30.735 62.6796ZM32.4181 63.8543C32.646 64.1874 32.6636 64.2926 32.4532 64.6082C31.9973 65.2919 31.1207 65.064 31.1207 64.275C31.1207 63.4685 31.9623 63.188 32.4181 63.8543Z" fill="white"/>
<path d="M18.1465 63.8542C18.164 64.6783 18.2517 65.2569 18.4095 65.4497C18.9179 66.151 20.9167 66.151 21.4777 65.4848C21.6004 65.327 21.7407 64.6257 21.7933 63.9068L21.881 62.5919H21.2322H20.6011V63.5387C20.6011 64.766 20.4783 65.0465 19.9699 65.0465C19.4439 65.0465 19.1984 64.4854 19.1984 63.3633C19.1984 62.627 19.1809 62.5919 18.6725 62.5919H18.1465V63.8542Z" fill="white"/>
</svg>
