<svg width="24" height="22" viewBox="0 0 24 22" fill="none" xmlns="http://www.w3.org/2000/svg">
<path d="M2.39996 -1.52398e-05C1.76345 -1.52954e-05 1.15301 0.252836 0.702934 0.702917C0.252853 1.153 1.73413e-06 1.76343 1.67849e-06 2.39994L1.16613e-06 8.26064C1.11048e-06 8.89715 0.252853 9.50759 0.702933 9.95767C1.15301 10.4077 1.76345 10.6606 2.39996 10.6606L5.7311 10.6606C5.7311 11.503 5.6807 12.3478 5.5823 13.1902C5.43351 14.0829 5.18391 14.8773 4.83832 15.5709C4.49032 16.2669 4.04393 16.8117 3.49674 17.2101C2.95195 17.6565 2.25836 17.8797 1.41357 17.8797L1.41357 21.5996C2.80315 21.5996 4.01753 21.302 5.06151 20.7068C6.09641 20.1177 6.98618 19.3042 7.66547 18.3261C8.34724 17.2477 8.84974 16.066 9.15344 14.8269C9.45947 13.4595 9.60923 12.0618 9.59984 10.6606L9.59984 2.39994C9.59984 1.76343 9.34698 1.153 8.8969 0.702918C8.44682 0.252837 7.83639 -1.47645e-05 7.19988 -1.48202e-05L2.39996 -1.52398e-05ZM16.7997 -1.39809e-05C16.1632 -1.40366e-05 15.5528 0.252837 15.1027 0.702918C14.6526 1.153 14.3998 1.76343 14.3998 2.39994L14.3998 8.26064C14.3998 8.89715 14.6526 9.50759 15.1027 9.95767C15.5528 10.4077 16.1632 10.6606 16.7997 10.6606L20.1309 10.6606C20.1309 11.503 20.0805 12.3478 19.9821 13.1902C19.8333 14.0829 19.5837 14.8773 19.2381 15.5709C18.8901 16.2669 18.4437 16.8117 17.8965 17.2101C17.3517 17.6565 16.6581 17.8797 15.8133 17.8797L15.8133 21.5996C17.2029 21.5996 18.4173 21.302 19.4613 20.7068C20.4962 20.1177 21.3859 19.3042 22.0652 18.3261C22.747 17.2477 23.2495 16.066 23.5532 14.8269C23.8592 13.4595 24.009 12.0618 23.9996 10.6606L23.9996 2.39994C23.9996 1.76344 23.7467 1.153 23.2967 0.702919C22.8466 0.252838 22.2361 -1.35056e-05 21.5996 -1.35613e-05L16.7997 -1.39809e-05Z" fill="#5DC49F"/>
</svg>
