<svg width="16" height="15" viewBox="0 0 16 15" fill="none" xmlns="http://www.w3.org/2000/svg">
<path d="M1.59997 3.02124e-05C1.17563 3.01753e-05 0.768675 0.168598 0.468622 0.468651C0.16857 0.768704 1.15609e-06 1.17566 1.11899e-06 1.6L7.7742e-07 5.50713C7.40323e-07 5.93147 0.168569 6.33843 0.468622 6.63849C0.768675 6.93854 1.17563 7.10711 1.59997 7.10711L3.82073 7.10711C3.82073 7.6687 3.78714 8.23189 3.72154 8.79348C3.62234 9.38867 3.45594 9.91826 3.22554 10.3806C2.99355 10.8446 2.69595 11.2078 2.33116 11.4734C1.96797 11.771 1.50557 11.9198 0.942383 11.9198L0.942383 14.3998C1.86877 14.3998 2.67835 14.2014 3.37434 13.8046C4.06427 13.4118 4.65745 12.8695 5.11031 12.2174C5.56482 11.4985 5.89983 10.7107 6.1023 9.88466C6.30631 8.97306 6.40615 8.04124 6.39989 7.10711L6.39989 1.6C6.39989 1.17566 6.23132 0.768705 5.93127 0.468652C5.63122 0.168598 5.22426 3.05292e-05 4.79992 3.04921e-05L1.59997 3.02124e-05ZM11.1998 3.10516e-05C10.7755 3.10145e-05 10.3685 0.168599 10.0685 0.468652C9.7684 0.768705 9.59984 1.17566 9.59984 1.6L9.59983 5.50713C9.59983 5.93147 9.7684 6.33843 10.0685 6.63849C10.3685 6.93854 10.7755 7.10711 11.1998 7.10711L13.4206 7.10711C13.4206 7.6687 13.387 8.23189 13.3214 8.79348C13.2222 9.38867 13.0558 9.91826 12.8254 10.3806C12.5934 10.8446 12.2958 11.2078 11.931 11.4734C11.5678 11.771 11.1054 11.9198 10.5422 11.9198L10.5422 14.3998C11.4686 14.3998 12.2782 14.2014 12.9742 13.8046C13.6641 13.4118 14.2573 12.8695 14.7101 12.2174C15.1647 11.4985 15.4997 10.7107 15.7021 9.88466C15.9061 8.97306 16.006 8.04124 15.9997 7.10711L15.9997 1.6C15.9997 1.17566 15.8312 0.768705 15.5311 0.468653C15.2311 0.168599 14.8241 3.13685e-05 14.3998 3.13314e-05L11.1998 3.10516e-05Z" fill="white"/>
</svg>
