<svg width="16" height="15" viewBox="0 0 16 15" fill="none" xmlns="http://www.w3.org/2000/svg">
<path d="M14.4 14.3997C14.8244 14.3997 15.2313 14.2312 15.5314 13.9311C15.8314 13.6311 16 13.2241 16 12.7998V8.89264C16 8.46831 15.8314 8.06135 15.5314 7.76129C15.2313 7.46124 14.8244 7.29267 14.4 7.29267H12.1793C12.1793 6.73108 12.2129 6.16789 12.2785 5.6063C12.3777 5.01111 12.5441 4.48152 12.7745 4.01913C13.0065 3.55514 13.304 3.19194 13.6688 2.92635C14.032 2.62875 14.4944 2.47996 15.0576 2.47996V0C14.1312 0 13.3216 0.198397 12.6257 0.59519C11.9357 0.98796 11.3425 1.5303 10.8897 2.18236C10.4352 2.90125 10.1002 3.68905 9.89771 4.51512C9.69369 5.42672 9.59385 6.35854 9.60011 7.29267V12.7998C9.60011 13.2241 9.76868 13.6311 10.0687 13.9311C10.3688 14.2312 10.7757 14.3997 11.2001 14.3997H14.4ZM4.80019 14.3997C5.22453 14.3997 5.63149 14.2312 5.93154 13.9311C6.2316 13.6311 6.40017 13.2241 6.40017 12.7998V8.89264C6.40017 8.46831 6.2316 8.06135 5.93154 7.76129C5.63149 7.46124 5.22453 7.29267 4.80019 7.29267H2.57943C2.57943 6.73108 2.61303 6.16789 2.67863 5.6063C2.77783 5.01111 2.94423 4.48152 3.17462 4.01913C3.40662 3.55514 3.70421 3.19194 4.06901 2.92635C4.4322 2.62875 4.89459 2.47996 5.45778 2.47996V0C4.5314 0 3.72181 0.198397 3.02582 0.59519C2.33589 0.98796 1.74271 1.5303 1.28985 2.18236C0.835343 2.90125 0.50034 3.68905 0.297872 4.51512C0.0938533 5.42672 -0.00598481 6.35854 0.00027724 7.29267V12.7998C0.00027724 13.2241 0.168845 13.6311 0.468898 13.9311C0.768951 14.2312 1.17591 14.3997 1.60025 14.3997H4.80019Z" fill="white"/>
</svg>
