<svg width="24" height="22" viewBox="0 0 24 22" fill="none" xmlns="http://www.w3.org/2000/svg">
<path d="M21.6 21.5996C22.2366 21.5996 22.847 21.3468 23.2971 20.8967C23.7471 20.4466 24 19.8362 24 19.1997V13.339C24 12.7025 23.7471 12.092 23.2971 11.6419C22.847 11.1919 22.2366 10.939 21.6 10.939H18.2689C18.2689 10.0966 18.3193 9.25184 18.4177 8.40945C18.5665 7.51667 18.8161 6.72228 19.1617 6.0287C19.5097 5.33271 19.9561 4.78792 20.5033 4.38952C21.0481 3.94313 21.7416 3.71994 22.5864 3.71994V0C21.1968 0 19.9825 0.297595 18.9385 0.892784C17.9036 1.48194 17.0138 2.29544 16.3345 3.27354C15.6528 4.35188 15.1503 5.53358 14.8466 6.77268C14.5405 8.14008 14.3908 9.53781 14.4002 10.939V19.1997C14.4002 19.8362 14.653 20.4466 15.1031 20.8967C15.5532 21.3468 16.1636 21.5996 16.8001 21.5996H21.6ZM7.20029 21.5996C7.8368 21.5996 8.44724 21.3468 8.89732 20.8967C9.3474 20.4466 9.60025 19.8362 9.60025 19.1997V13.339C9.60025 12.7025 9.3474 12.092 8.89732 11.6419C8.44724 11.1919 7.8368 10.939 7.20029 10.939H3.86915C3.86915 10.0966 3.91955 9.25184 4.01795 8.40945C4.16674 7.51667 4.41634 6.72228 4.76193 6.0287C5.10993 5.33271 5.55632 4.78792 6.10351 4.38952C6.6483 3.94313 7.34189 3.71994 8.18667 3.71994V0C6.7971 0 5.58272 0.297595 4.53874 0.892784C3.50384 1.48194 2.61407 2.29544 1.93478 3.27354C1.25301 4.35188 0.75051 5.53358 0.446808 6.77268C0.14078 8.14008 -0.00897722 9.53781 0.000415861 10.939V19.1997C0.000415861 19.8362 0.253268 20.4466 0.703347 20.8967C1.15343 21.3468 1.76387 21.5996 2.40037 21.5996H7.20029Z" fill="#5DC49F"/>
</svg>
