<svg width="30" height="24" viewBox="0 0 30 24" fill="none" xmlns="http://www.w3.org/2000/svg">
<path d="M9.27827 24C20.4248 24 26.5223 14.7642 26.5223 6.76892C26.5223 6.51047 26.5223 6.24833 26.5112 5.98988C27.6983 5.13052 28.7229 4.06657 29.5369 2.8479C28.428 3.33683 27.2529 3.65906 26.0497 3.80415C27.3171 3.0466 28.2663 1.85466 28.7209 0.449871C27.5302 1.15529 26.2269 1.6505 24.8682 1.91379C23.9548 0.940965 22.746 0.296497 21.4292 0.0802122C20.1123 -0.136072 18.7609 0.0878992 17.5843 0.717433C16.4077 1.34697 15.4714 2.34693 14.9207 3.56243C14.3699 4.77793 14.2353 6.14114 14.5377 7.44088C12.1281 7.32006 9.77083 6.69409 7.61875 5.60358C5.46667 4.51307 3.56784 2.98237 2.04543 1.11076C1.27256 2.44561 1.0367 4.02457 1.38573 5.52701C1.73477 7.02946 2.64254 8.34274 3.92471 9.20017C2.96392 9.16753 2.02424 8.90953 1.18148 8.44698V8.53006C1.18313 9.92841 1.66756 11.2833 2.55286 12.3657C3.43817 13.4481 4.67005 14.1917 6.04029 14.4707C5.52019 14.6139 4.98293 14.6854 4.44346 14.683C4.06314 14.6841 3.68358 14.6489 3.30998 14.5777C3.69726 15.7815 4.45134 16.8339 5.46663 17.5877C6.48191 18.3414 7.70753 18.7588 8.97183 18.7812C6.82405 20.4681 4.17098 21.383 1.43992 21.3786C0.958695 21.3806 0.477802 21.3529 0 21.2955C2.77188 23.0627 5.991 24.001 9.27827 24Z" fill="white"/>
</svg>
